<svg width="117" height="36" viewBox="0 0 125 36" fill="none" xmlns="http://www.w3.org/2000/svg">
<mask id="mask0_17_30" style="mask-type:alpha" maskUnits="userSpaceOnUse" x="0" y="0" width="125" height="36">
<rect width="125" height="36" fill="#D9D9D9"/>
</mask>
<g mask="url(#mask0_17_30)">
<path d="M21.531 30.259H15.1302V19.7323C15.1302 17.998 16.4184 14.8521 18.9143 14.9327C20.9111 14.9973 21.4908 16.8687 21.531 17.7963V30.259Z" fill="black"/>
<path d="M1 30.38V11.9482L9.13189 6.16695L15.2107 1.84535L17.4924 0.223195C17.9102 -0.0738319 18.4696 -0.0744495 18.8881 0.221655L32.7347 10.0198C34.4437 11.2291 35.4599 13.1946 35.4599 15.2908V30.38H29.9044C28.6149 30.38 27.5695 29.3327 27.5695 28.0407V16.0217C27.5695 12.7919 24.9561 10.1735 21.7323 10.1735C19.2138 10.1735 16.8323 11.3226 15.262 13.2953L15.2107 13.3598V1.84535L9.13189 6.16695L8.94789 28.3002C8.93832 29.4516 8.00394 30.38 6.85461 30.38H1Z" fill="black"/>
<text x="45" y="28" font-size="25" font-family="Nunito, sans-serif" font-weight="800" fill="black">HOZN</text>
</g>
</svg>
