<svg width="68" height="60" viewBox="0 0 68 60" fill="none" xmlns="http://www.w3.org/2000/svg">
<mask id="mask0_115_31" style="mask-type:alpha" maskUnits="userSpaceOnUse" x="0" y="0" width="68" height="60">
<rect width="68" height="60" fill="#D9D9D9"/>
</mask>
<g mask="url(#mask0_115_31)">
<path d="M37.531 30.259H31.1302V19.7323C31.1302 17.998 32.4184 14.8521 34.9143 14.9327C36.9111 14.9973 37.4908 16.8687 37.531 17.7963V30.259Z" fill="#161616"/>
<path d="M17 30.38V11.9482L25.1319 6.16695L31.2107 1.84535L33.4924 0.223195C33.9102 -0.0738319 34.4696 -0.0744495 34.8881 0.221655L48.7347 10.0198C50.4437 11.2291 51.4599 13.1946 51.4599 15.2908V30.38H45.9044C44.6149 30.38 43.5695 29.3327 43.5695 28.0407V16.0217C43.5695 12.7919 40.9561 10.1735 37.7323 10.1735C35.2138 10.1735 32.8323 11.3226 31.262 13.2953L31.2107 13.3598V1.84535L25.1319 6.16695L24.9479 28.3002C24.9383 29.4516 24.0039 30.38 22.8546 30.38H17Z" fill="#161616"/>
<text x="-1" y="55" font-size="22" font-family="Nunito, sans-serif" font-weight="800" fill="#161616">HOZN</text>
</g>
</svg>
